<?xml version="1.0" encoding="utf-8"?>
<!-- Generator: Adobe Illustrator 21.0.0, SVG Export Plug-In . SVG Version: 6.00 Build 0)  -->
<svg version="1.1" xmlns="http://www.w3.org/2000/svg" xmlns:xlink="http://www.w3.org/1999/xlink" x="0px" y="0px"
	 viewBox="0 0 512 512" style="enable-background:new 0 0 512 512;" xml:space="preserve">
<style type="text/css">
	.st0{fill:#FF0000;}
	.st1{fill:#FFFFFF;}
	.st2{fill:#01A0C6;}
</style>
<g id="Layer_4">
	<rect x="250.7" y="113.6" width="36" height="102.9"/>
	<rect x="343" y="113.6" width="36" height="102.9"/>
	<polygon class="st0" points="20.8,103.6 20.8,411.4 123.7,411.4 123.7,499.3 212.7,413.4 281.6,413.4 434,261 434,17.6 108.7,17.6 
			"/>
	<polygon class="st1" points="116.8,53.6 116.8,308.5 191.7,308.5 191.7,369.4 251.7,309.5 322.6,309.5 390.6,241.5 390.6,53.6 	"/>
	<rect x="211.7" y="113.6" width="36" height="102.9"/>
	<rect x="304" y="113.6" width="36" height="102.9"/>
	<polygon class="st2" points="72.8,103.6 72.8,411.4 175.7,411.4 175.7,499.3 264.6,413.4 333.6,413.4 486,261 486,17.6 160.7,17.6 
			"/>
	<rect x="286.9" y="113.6" width="36" height="102.9"/>
	<rect x="379.2" y="113.6" width="36" height="102.9"/>
</g>
<g id="Layer_2">
	<polygon points="49.8,103.6 49.8,411.4 152.7,411.4 152.7,499.3 241.7,413.4 310.6,413.4 463,261 463,17.6 137.8,17.6 	"/>
</g>
<g id="Layer_3">
	<polygon class="st1" points="155.7,53.6 155.7,308.5 230.7,308.5 230.7,369.4 290.7,309.5 361.6,309.5 429.6,241.5 429.6,53.6 	"/>
</g>
<g id="Layer_6">
	<rect x="228.7" y="102.6" width="28" height="85.9"/>
	<rect x="337.1" y="102.6" width="28" height="85.9"/>
</g>
</svg>
